<svg width="55" height="55" viewBox="0 0 55 55" fill="none" xmlns="http://www.w3.org/2000/svg">
<path d="M11.4587 22.9167H16.0421C20.6254 22.9167 22.9171 20.625 22.9171 16.0417V11.4584C22.9171 6.87504 20.6254 4.58337 16.0421 4.58337H11.4587C6.87541 4.58337 4.58374 6.87504 4.58374 11.4584V16.0417C4.58374 20.625 6.87541 22.9167 11.4587 22.9167Z" stroke="#241C1D" stroke-width="2.35714" stroke-miterlimit="10" stroke-linecap="round" stroke-linejoin="round"/>
<path d="M38.9587 22.9167H43.5421C48.1254 22.9167 50.4171 20.625 50.4171 16.0417V11.4584C50.4171 6.87504 48.1254 4.58337 43.5421 4.58337H38.9587C34.3754 4.58337 32.0837 6.87504 32.0837 11.4584V16.0417C32.0837 20.625 34.3754 22.9167 38.9587 22.9167Z" stroke="#241C1D" stroke-width="2.35714" stroke-miterlimit="10" stroke-linecap="round" stroke-linejoin="round"/>
<path d="M38.9587 50.4167H43.5421C48.1254 50.4167 50.4171 48.125 50.4171 43.5417V38.9584C50.4171 34.375 48.1254 32.0834 43.5421 32.0834H38.9587C34.3754 32.0834 32.0837 34.375 32.0837 38.9584V43.5417C32.0837 48.125 34.3754 50.4167 38.9587 50.4167Z" stroke="#241C1D" stroke-width="2.35714" stroke-miterlimit="10" stroke-linecap="round" stroke-linejoin="round"/>
<path d="M11.4587 50.4167H16.0421C20.6254 50.4167 22.9171 48.125 22.9171 43.5417V38.9584C22.9171 34.375 20.6254 32.0834 16.0421 32.0834H11.4587C6.87541 32.0834 4.58374 34.375 4.58374 38.9584V43.5417C4.58374 48.125 6.87541 50.4167 11.4587 50.4167Z" stroke="#241C1D" stroke-width="2.35714" stroke-miterlimit="10" stroke-linecap="round" stroke-linejoin="round"/>
</svg>
