<svg width="56" height="55" viewBox="0 0 56 55" fill="none" xmlns="http://www.w3.org/2000/svg">
<path d="M20.8255 50.4167H34.5755C46.0338 50.4167 50.6172 45.8334 50.6172 34.375V20.625C50.6172 9.16671 46.0338 4.58337 34.5755 4.58337H20.8255C9.36715 4.58337 4.78381 9.16671 4.78381 20.625V34.375C4.78381 45.8334 9.36715 50.4167 20.8255 50.4167Z" stroke="#241C1D" stroke-width="2.35714" stroke-linecap="round" stroke-linejoin="round"/>
<path d="M35.7208 42.3958C38.2416 42.3958 40.3041 40.3333 40.3041 37.8125V17.1875C40.3041 14.6666 38.2416 12.6041 35.7208 12.6041C33.2 12.6041 31.1375 14.6666 31.1375 17.1875V37.8125C31.1375 40.3333 33.177 42.3958 35.7208 42.3958Z" stroke="#241C1D" stroke-width="2.35714" stroke-linecap="round" stroke-linejoin="round"/>
<path d="M19.6796 42.3959C22.2005 42.3959 24.263 40.3334 24.263 37.8125V29.7917C24.263 27.2709 22.2005 25.2084 19.6796 25.2084C17.1588 25.2084 15.0963 27.2709 15.0963 29.7917V37.8125C15.0963 40.3334 17.1359 42.3959 19.6796 42.3959Z" stroke="#241C1D" stroke-width="2.35714" stroke-linecap="round" stroke-linejoin="round"/>
</svg>
