<svg width="20" height="20" viewBox="0 0 20 20" fill="none" xmlns="http://www.w3.org/2000/svg">
<path d="M7.70825 7.54163C9.19159 8.08329 10.8083 8.08329 12.2916 7.54163" stroke="#292D32" stroke-width="1.25" stroke-linecap="round" stroke-linejoin="round"/>
<path d="M14.0168 1.66663H5.98351C4.20851 1.66663 2.76685 3.11663 2.76685 4.88329V16.625C2.76685 18.125 3.84185 18.7583 5.15851 18.0333L9.22518 15.775C9.65851 15.5333 10.3585 15.5333 10.7835 15.775L14.8502 18.0333C16.1668 18.7666 17.2418 18.1333 17.2418 16.625V4.88329C17.2335 3.11663 15.7918 1.66663 14.0168 1.66663Z" stroke="#292D32" stroke-width="1.25" stroke-linecap="round" stroke-linejoin="round"/>
<path d="M14.0168 1.66663H5.98351C4.20851 1.66663 2.76685 3.11663 2.76685 4.88329V16.625C2.76685 18.125 3.84185 18.7583 5.15851 18.0333L9.22518 15.775C9.65851 15.5333 10.3585 15.5333 10.7835 15.775L14.8502 18.0333C16.1668 18.7666 17.2418 18.1333 17.2418 16.625V4.88329C17.2335 3.11663 15.7918 1.66663 14.0168 1.66663Z" stroke="#292D32" stroke-width="1.25" stroke-linecap="round" stroke-linejoin="round"/>
</svg>
