<svg width="16" height="16" viewBox="0 0 16 16" fill="none" xmlns="http://www.w3.org/2000/svg">
<path d="M13.3996 4.62671C13.3996 4.98671 13.2063 5.31337 12.8996 5.48004L11.7396 6.10671L10.7529 6.63337L8.70628 7.74004C8.48628 7.86004 8.24628 7.92004 7.99961 7.92004C7.75294 7.92004 7.51294 7.86004 7.29294 7.74004L3.09961 5.48004C2.79294 5.31337 2.59961 4.98671 2.59961 4.62671C2.59961 4.26671 2.79294 3.94004 3.09961 3.77337L4.41294 3.06671L5.45961 2.50004L7.29294 1.51337C7.73294 1.27337 8.26628 1.27337 8.70628 1.51337L12.8996 3.77337C13.2063 3.94004 13.3996 4.26671 13.3996 4.62671Z" fill="#6789C6"/>
<path d="M6.59917 8.52664L2.69917 6.57997C2.39917 6.42664 2.0525 6.44664 1.76583 6.61997C1.47917 6.79331 1.3125 7.09997 1.3125 7.4333V11.12C1.3125 11.76 1.66583 12.3333 2.23917 12.62L6.13917 14.5666C6.2725 14.6333 6.41917 14.6666 6.56583 14.6666C6.73917 14.6666 6.9125 14.62 7.06583 14.52C7.3525 14.3466 7.51917 14.04 7.51917 13.7066V10.02C7.52583 9.38664 7.1725 8.8133 6.59917 8.52664Z" fill="#6789C6"/>
<path d="M14.686 7.43338V11.12C14.686 11.7534 14.3327 12.3267 13.7593 12.6134L9.85932 14.5667C9.72599 14.6334 9.57932 14.6667 9.43266 14.6667C9.25932 14.6667 9.08599 14.62 8.92599 14.52C8.64599 14.3467 8.47266 14.04 8.47266 13.7067V10.0267C8.47266 9.38671 8.82599 8.81338 9.39932 8.52671L10.8327 7.81338L11.8327 7.31338L13.2993 6.58004C13.5993 6.42671 13.946 6.44004 14.2327 6.62004C14.5127 6.79338 14.686 7.10004 14.686 7.43338Z" fill="#6789C6"/>
<path d="M11.7407 6.10667L10.7541 6.63333L4.41406 3.06667L5.46073 2.5L11.5807 5.95333C11.6474 5.99333 11.7007 6.04667 11.7407 6.10667Z" fill="#6789C6"/>
<path d="M11.834 7.31335V8.82669C11.834 9.10002 11.6073 9.32669 11.334 9.32669C11.0607 9.32669 10.834 9.10002 10.834 8.82669V7.81335L11.834 7.31335Z" fill="#6789C6"/>
</svg>
