<svg width="16" height="16" viewBox="0 0 16 16" fill="none" xmlns="http://www.w3.org/2000/svg">
<path d="M14.5399 2.62671C13.5133 5.18671 10.9399 8.66671 8.7866 10.3934L7.47327 11.4467C7.3066 11.5667 7.13993 11.6734 6.95327 11.7467C6.95327 11.6267 6.9466 11.4934 6.9266 11.3667C6.85327 10.8067 6.59993 10.2867 6.15326 9.84004C5.69993 9.38671 5.1466 9.12004 4.57993 9.04671C4.4466 9.04004 4.31326 9.02671 4.17993 9.04004C4.25326 8.83337 4.3666 8.64004 4.5066 8.48004L5.5466 7.16671C7.2666 5.01337 10.7599 2.42671 13.3133 1.40671C13.7066 1.26004 14.0866 1.36671 14.3266 1.61337C14.5799 1.86004 14.6999 2.24004 14.5399 2.62671Z" stroke="#292D32" stroke-linecap="round" stroke-linejoin="round"/>
<path d="M6.95343 11.7467C6.95343 12.48 6.67343 13.18 6.14677 13.7133C5.7401 14.12 5.18677 14.4 4.52677 14.4867L2.88677 14.6667C1.99343 14.7667 1.22677 14.0067 1.33343 13.1L1.51343 11.46C1.67343 9.99999 2.89343 9.06666 4.18677 9.03999C4.3201 9.03333 4.4601 9.03999 4.58677 9.04666C5.15343 9.11999 5.70677 9.37999 6.1601 9.83999C6.60677 10.2867 6.8601 10.8067 6.93343 11.3667C6.9401 11.4933 6.95343 11.62 6.95343 11.7467Z" stroke="#292D32" stroke-linecap="round" stroke-linejoin="round"/>
<path d="M9.49342 9.64662C9.49342 7.90662 8.08009 6.49329 6.34009 6.49329" stroke="#292D32" stroke-linecap="round" stroke-linejoin="round"/>
</svg>
