<svg width="20" height="20" viewBox="0 0 20 20" fill="none" xmlns="http://www.w3.org/2000/svg">
<path d="M18.3333 14.5833H12.5" stroke="#241C1D" stroke-width="1.25" stroke-miterlimit="10" stroke-linecap="round" stroke-linejoin="round"/>
<path d="M4.16675 14.5834H1.66675" stroke="#241C1D" stroke-width="1.25" stroke-miterlimit="10" stroke-linecap="round" stroke-linejoin="round"/>
<path d="M18.3333 5.41663H15.8333" stroke="#241C1D" stroke-width="1.25" stroke-miterlimit="10" stroke-linecap="round" stroke-linejoin="round"/>
<path d="M7.50008 5.41663H1.66675" stroke="#241C1D" stroke-width="1.25" stroke-miterlimit="10" stroke-linecap="round" stroke-linejoin="round"/>
<path d="M5.83341 12.0834H10.8334C11.7501 12.0834 12.5001 12.5 12.5001 13.75V15.4167C12.5001 16.6667 11.7501 17.0834 10.8334 17.0834H5.83341C4.91675 17.0834 4.16675 16.6667 4.16675 15.4167V13.75C4.16675 12.5 4.91675 12.0834 5.83341 12.0834Z" stroke="#241C1D" stroke-width="1.25" stroke-miterlimit="10" stroke-linecap="round" stroke-linejoin="round"/>
<path d="M9.16667 2.91675H14.1667C15.0833 2.91675 15.8333 3.33341 15.8333 4.58341V6.25008C15.8333 7.50008 15.0833 7.91675 14.1667 7.91675H9.16667C8.25 7.91675 7.5 7.50008 7.5 6.25008V4.58341C7.5 3.33341 8.25 2.91675 9.16667 2.91675Z" stroke="#241C1D" stroke-width="1.25" stroke-miterlimit="10" stroke-linecap="round" stroke-linejoin="round"/>
</svg>
