<svg width="16" height="16" viewBox="0 0 16 16" fill="none" xmlns="http://www.w3.org/2000/svg">
<path d="M13.18 9.16671H10.4867C9.14667 9.16671 8.5 8.54671 8.5 7.26671V2.73337C8.5 1.45337 9.15333 0.833374 10.4867 0.833374H13.18C14.52 0.833374 15.1667 1.45337 15.1667 2.73337V7.26671C15.1667 8.54671 14.5133 9.16671 13.18 9.16671ZM10.4867 1.83337C9.64 1.83337 9.5 2.06004 9.5 2.73337V7.26671C9.5 7.94004 9.64 8.16671 10.4867 8.16671H13.18C14.0267 8.16671 14.1667 7.94004 14.1667 7.26671V2.73337C14.1667 2.06004 14.0267 1.83337 13.18 1.83337H10.4867Z" fill="#4B5563"/>
<path d="M13.18 15.1666H10.4867C9.14667 15.1666 8.5 14.5466 8.5 13.2666V12.0666C8.5 10.7866 9.15333 10.1666 10.4867 10.1666H13.18C14.52 10.1666 15.1667 10.7866 15.1667 12.0666V13.2666C15.1667 14.5466 14.5133 15.1666 13.18 15.1666ZM10.4867 11.1666C9.64 11.1666 9.5 11.3933 9.5 12.0666V13.2666C9.5 13.94 9.64 14.1666 10.4867 14.1666H13.18C14.0267 14.1666 14.1667 13.94 14.1667 13.2666V12.0666C14.1667 11.3933 14.0267 11.1666 13.18 11.1666H10.4867Z" fill="#4B5563"/>
<path d="M5.5135 15.1667H2.82016C1.48016 15.1667 0.833496 14.5467 0.833496 13.2667V8.73337C0.833496 7.45337 1.48683 6.83337 2.82016 6.83337H5.5135C6.8535 6.83337 7.50016 7.45337 7.50016 8.73337V13.2667C7.50016 14.5467 6.84683 15.1667 5.5135 15.1667ZM2.82016 7.83337C1.9735 7.83337 1.8335 8.06004 1.8335 8.73337V13.2667C1.8335 13.94 1.9735 14.1667 2.82016 14.1667H5.5135C6.36016 14.1667 6.50016 13.94 6.50016 13.2667V8.73337C6.50016 8.06004 6.36016 7.83337 5.5135 7.83337H2.82016Z" fill="#4B5563"/>
<path d="M5.5135 5.83337H2.82016C1.48016 5.83337 0.833496 5.21337 0.833496 3.93337V2.73337C0.833496 1.45337 1.48683 0.833374 2.82016 0.833374H5.5135C6.8535 0.833374 7.50016 1.45337 7.50016 2.73337V3.93337C7.50016 5.21337 6.84683 5.83337 5.5135 5.83337ZM2.82016 1.83337C1.9735 1.83337 1.8335 2.06004 1.8335 2.73337V3.93337C1.8335 4.60671 1.9735 4.83337 2.82016 4.83337H5.5135C6.36016 4.83337 6.50016 4.60671 6.50016 3.93337V2.73337C6.50016 2.06004 6.36016 1.83337 5.5135 1.83337H2.82016Z" fill="#4B5563"/>
</svg>
