<svg width="16" height="16" viewBox="0 0 16 16" fill="none" xmlns="http://www.w3.org/2000/svg">
<path d="M13.3333 4.50004C14.3459 4.50004 15.1667 3.67923 15.1667 2.66671C15.1667 1.65419 14.3459 0.833374 13.3333 0.833374C12.3208 0.833374 11.5 1.65419 11.5 2.66671C11.5 3.67923 12.3208 4.50004 13.3333 4.50004Z" fill="#6789C6"/>
<path d="M12.694 5.43337C11.6473 5.20671 10.794 4.35337 10.5673 3.30671C10.4807 2.90004 10.474 2.50671 10.5473 2.13337C10.634 1.72004 10.3273 1.33337 9.90065 1.33337H4.66732C2.82732 1.33337 1.33398 2.82671 1.33398 4.66671V9.30004C1.33398 11.14 2.82732 12.6334 4.66732 12.6334H5.66732C5.85398 12.6334 6.09398 12.7534 6.20065 12.9L7.20065 14.2267C7.64065 14.8134 8.36065 14.8134 8.80065 14.2267L9.80065 12.9C9.92732 12.7334 10.1207 12.6334 10.334 12.6334H11.3407C13.1807 12.6334 14.6673 11.1467 14.6673 9.30671V6.10004C14.6673 5.68004 14.2807 5.37337 13.8673 5.45337C13.494 5.52004 13.1007 5.52004 12.694 5.43337ZM5.33398 8.00004C4.96065 8.00004 4.66732 7.70004 4.66732 7.33337C4.66732 6.96671 4.96065 6.66671 5.33398 6.66671C5.70065 6.66671 6.00065 6.96671 6.00065 7.33337C6.00065 7.70004 5.70732 8.00004 5.33398 8.00004ZM8.00065 8.00004C7.62732 8.00004 7.33398 7.70004 7.33398 7.33337C7.33398 6.96671 7.62732 6.66671 8.00065 6.66671C8.36732 6.66671 8.66732 6.96671 8.66732 7.33337C8.66732 7.70004 8.37398 8.00004 8.00065 8.00004ZM10.6673 8.00004C10.294 8.00004 10.0007 7.70004 10.0007 7.33337C10.0007 6.96671 10.294 6.66671 10.6673 6.66671C11.034 6.66671 11.334 6.96671 11.334 7.33337C11.334 7.70004 11.0407 8.00004 10.6673 8.00004Z" fill="#6789C6"/>
</svg>
