<svg width="16" height="16" viewBox="0 0 16 16" fill="none" xmlns="http://www.w3.org/2000/svg">
<path d="M14.668 3.43325V5.89992C14.668 7.39992 14.068 7.99992 12.568 7.99992H10.768C9.26797 7.99992 8.66797 7.39992 8.66797 5.89992V3.43325C8.66797 1.93325 9.26797 1.33325 10.768 1.33325H12.568C14.068 1.33325 14.668 1.93325 14.668 3.43325Z" fill="#6789C6"/>
<path d="M7.33203 10.1V12.5667C7.33203 14.0667 6.73203 14.6667 5.23203 14.6667H3.43203C1.93203 14.6667 1.33203 14.0667 1.33203 12.5667V10.1C1.33203 8.6 1.93203 8 3.43203 8H5.23203C6.73203 8 7.33203 8.6 7.33203 10.1Z" fill="#6789C6"/>
<path d="M9.85299 14.6667C9.67299 14.6667 9.50633 14.5667 9.41966 14.4133C9.33299 14.2533 9.33299 14.0667 9.42633 13.9067L10.073 12.8267C10.213 12.5867 10.5197 12.5133 10.7597 12.6533C10.9997 12.7933 11.073 13.1 10.933 13.34L10.813 13.54C12.4597 13.1133 13.673 11.62 13.673 9.84668C13.673 9.57335 13.8997 9.34668 14.173 9.34668C14.4463 9.34668 14.6663 9.57335 14.6663 9.85335C14.6663 12.5067 12.5063 14.6667 9.85299 14.6667Z" fill="#6789C6"/>
<path d="M1.83203 6.64659C1.5587 6.64659 1.33203 6.42659 1.33203 6.14659C1.33203 3.49325 3.49203 1.33325 6.14536 1.33325C6.33203 1.33325 6.49203 1.43325 6.58536 1.58659C6.67203 1.74659 6.67203 1.93325 6.5787 2.09325L5.93203 3.16659C5.78536 3.40659 5.4787 3.48659 5.24536 3.33992C5.00536 3.19992 4.93203 2.89325 5.07203 2.65325L5.19203 2.45325C3.55203 2.87992 2.33203 4.37325 2.33203 6.14659C2.33203 6.42659 2.10536 6.64659 1.83203 6.64659Z" fill="#6789C6"/>
</svg>
