<svg xmlns="http://www.w3.org/2000/svg" width="186" height="149" viewBox="0 0 186 149" fill="none">
    <path d="M128.112 149H55.5054L55.4915 148.593L52.0247 49.4409H131.592L128.112 149ZM56.3199 148.157H127.298L130.72 50.2841H52.8974L56.3199 148.157Z" fill="#3F3D56"/>
    <path d="M72.8252 67.8125H67.3026V136.153H72.8252V67.8125Z" fill="#3F3D56"/>
    <path d="M94.5698 67.8125H89.0472V136.153H94.5698V67.8125Z" fill="#3F3D56"/>
    <path d="M116.314 67.8125H110.792V136.153H116.314V67.8125Z" fill="#3F3D56"/>
    <path d="M177.73 78.5567L177.374 78.3315L87.1871 21.338L95.0102 8.95898L95.3668 9.1842L185.553 66.1775L177.73 78.5567ZM88.3506 21.0757L177.468 77.3932L184.39 66.4402L95.2729 10.1221L88.3506 21.0757Z" fill="#3F3D56"/>
    <path d="M155.956 16.7447C153.334 15.0857 150.292 14.2135 147.189 14.2317C144.087 14.2499 141.055 15.1578 138.453 16.8475C135.852 18.5372 133.789 20.9379 132.511 23.7646C131.232 26.5914 130.792 29.7255 131.241 32.7951L135.542 35.5128C134.461 33.0034 134.212 30.214 134.831 27.5529C135.45 24.8918 136.905 22.4989 138.983 20.7245C141.061 18.9501 143.652 17.8874 146.377 17.6921C149.102 17.4968 151.818 18.179 154.128 19.639C156.437 21.099 158.218 23.26 159.211 25.8056C160.203 28.3512 160.355 31.1476 159.643 33.7854C158.931 36.4233 157.393 38.7639 155.255 40.4647C153.117 42.1654 150.49 43.137 147.76 43.237L152.06 45.9546C155.026 45.0442 157.668 43.302 159.673 40.9348C161.679 38.5676 162.963 35.6748 163.373 32.5997C163.784 29.5246 163.304 26.3963 161.989 23.5859C160.675 20.7756 158.583 18.4013 155.959 16.7447H155.956Z" fill="#3F3D56"/>
    <path d="M36.0609 67.2421L0.645595 42.4212C0.31656 42.1896 0.0926907 41.8371 0.022996 41.4408C-0.0466987 41.0446 0.0434788 40.6368 0.27376 40.3069L28.0706 0.645597C28.3021 0.316562 28.6546 0.0926923 29.0509 0.0229976C29.4471 -0.0466971 29.8549 0.0434675 30.1848 0.273749L65.6001 25.0947C65.9291 25.3263 66.153 25.6788 66.2227 26.075C66.2924 26.4713 66.2022 26.879 65.9719 27.209L38.1758 66.8692C37.9444 67.1986 37.5919 67.4229 37.1954 67.4928C36.799 67.5627 36.391 67.4725 36.0609 67.2421Z" fill="#E7495E"/>
    <path d="M44.0255 40.31L23.2444 25.7455C23.0041 25.577 22.7993 25.3629 22.6417 25.1153C22.4841 24.8677 22.3769 24.5916 22.326 24.3025C22.2752 24.0135 22.2818 23.7173 22.3454 23.4308C22.4091 23.1443 22.5285 22.8731 22.6969 22.6328C22.8654 22.3925 23.0795 22.1877 23.3271 22.0301C23.5746 21.8725 23.8508 21.7653 24.1399 21.7144C24.4289 21.6636 24.7251 21.6702 25.0116 21.7338C25.2981 21.7975 25.5693 21.9169 25.8096 22.0854L46.5907 36.6499C47.076 36.9901 47.4064 37.5091 47.509 38.0928C47.6117 38.6766 47.4783 39.2772 47.1381 39.7625C46.7979 40.2479 46.2789 40.5782 45.6952 40.6809C45.1114 40.7836 44.5108 40.6501 44.0255 40.31Z" fill="white"/>
    <path d="M39.2561 47.1143L18.475 32.5498C18.2344 32.3815 18.0293 32.1674 17.8715 31.9198C17.7136 31.6722 17.6062 31.3959 17.5552 31.1067C17.5042 30.8175 17.5107 30.5211 17.5743 30.2345C17.6379 29.9478 17.7574 29.6765 17.9259 29.4361C18.0945 29.1956 18.3087 28.9907 18.5565 28.8331C18.8042 28.6755 19.0806 28.5682 19.3698 28.5175C19.659 28.4668 19.9554 28.4735 20.242 28.5374C20.5286 28.6012 20.7999 28.721 21.0402 28.8897L41.8212 43.4542C42.306 43.7946 42.6359 44.3136 42.7382 44.897C42.8406 45.4805 42.7071 46.0807 42.3671 46.5658C42.0271 47.0508 41.5085 47.3811 40.9251 47.484C40.3418 47.5868 39.7414 47.4539 39.2561 47.1143Z" fill="white"/>
    <path d="M34.4354 53.9926L13.6543 39.4281C13.414 39.2597 13.2092 39.0455 13.0516 38.798C12.894 38.5504 12.7868 38.2742 12.7359 37.9852C12.6851 37.6961 12.6917 37.3999 12.7553 37.1134C12.819 36.8269 12.9384 36.5558 13.1068 36.3154C13.2753 36.0751 13.4894 35.8703 13.737 35.7128C13.9846 35.5552 14.2608 35.4479 14.5498 35.3971C14.8388 35.3462 15.135 35.3528 15.4215 35.4165C15.708 35.4801 15.9792 35.5996 16.2195 35.768L37.0006 50.3325C37.4859 50.6727 37.8163 51.1917 37.919 51.7754C38.0216 52.3592 37.8882 52.9598 37.548 53.4452C37.2079 53.9305 36.6888 54.2609 36.1051 54.3635C35.5214 54.4662 34.9207 54.3328 34.4354 53.9926Z" fill="white"/>
    <path d="M43.9671 26.8478L35.918 21.2065C35.6774 21.0382 35.4723 20.8241 35.3145 20.5765C35.1566 20.3289 35.0492 20.0526 34.9982 19.7634C34.9472 19.4743 34.9537 19.1779 35.0173 18.8912C35.0809 18.6046 35.2004 18.3332 35.3689 18.0928C35.5375 17.8523 35.7517 17.6474 35.9995 17.4898C36.2472 17.3322 36.5236 17.225 36.8128 17.1742C37.1021 17.1235 37.3984 17.1303 37.6851 17.1941C37.9717 17.258 38.2429 17.3777 38.4832 17.5464L46.5323 23.1877C47.0177 23.5279 47.348 24.0469 47.4507 24.6306C47.5533 25.2144 47.4199 25.815 47.0797 26.3004C46.7396 26.7857 46.2205 27.1161 45.6368 27.2187C45.0531 27.3214 44.4525 27.188 43.9671 26.8478Z" fill="white"/>
</svg>