<svg width="20" height="20" viewBox="0 0 20 20" fill="none" xmlns="http://www.w3.org/2000/svg">
<path d="M18.3333 9.08341V3.41675C18.3333 2.16675 17.8 1.66675 16.475 1.66675H13.1083C11.7833 1.66675 11.25 2.16675 11.25 3.41675V9.08341C11.25 10.3334 11.7833 10.8334 13.1083 10.8334H16.475C17.8 10.8334 18.3333 10.3334 18.3333 9.08341Z" stroke="#241C1D" stroke-width="1.25" stroke-linecap="round" stroke-linejoin="round"/>
<path d="M18.3333 16.5833V15.0833C18.3333 13.8333 17.8 13.3333 16.475 13.3333H13.1083C11.7833 13.3333 11.25 13.8333 11.25 15.0833V16.5833C11.25 17.8333 11.7833 18.3333 13.1083 18.3333H16.475C17.8 18.3333 18.3333 17.8333 18.3333 16.5833Z" stroke="#241C1D" stroke-width="1.25" stroke-linecap="round" stroke-linejoin="round"/>
<path d="M8.75008 10.9166V16.5833C8.75008 17.8333 8.21675 18.3333 6.89175 18.3333H3.52508C2.20008 18.3333 1.66675 17.8333 1.66675 16.5833V10.9166C1.66675 9.66663 2.20008 9.16663 3.52508 9.16663H6.89175C8.21675 9.16663 8.75008 9.66663 8.75008 10.9166Z" stroke="#241C1D" stroke-width="1.25" stroke-linecap="round" stroke-linejoin="round"/>
<path d="M8.75008 3.41663V4.91663C8.75008 6.16663 8.21675 6.66663 6.89175 6.66663H3.52508C2.20008 6.66663 1.66675 6.16663 1.66675 4.91663V3.41663C1.66675 2.16663 2.20008 1.66663 3.52508 1.66663H6.89175C8.21675 1.66663 8.75008 2.16663 8.75008 3.41663Z" stroke="#241C1D" stroke-width="1.25" stroke-linecap="round" stroke-linejoin="round"/>
</svg>
