<svg width="25" height="23" viewBox="0 0 20 21" fill="none" xmlns="http://www.w3.org/2000/svg">
<mask id="mask0_9094_3795" style="mask-type:luminance" maskUnits="userSpaceOnUse" x="0" y="0" width="20" height="21">
<rect y="0.5" width="20" height="20" fill="white"/>
</mask>
<g mask="url(#mask0_9094_3795)">
<path d="M8.54411 5.40375L8.77611 8.85371L8.89128 10.5877C8.89253 10.766 8.92045 10.9432 8.97436 11.1135C9.11345 11.444 9.44811 11.654 9.81219 11.6393L15.3599 11.2764C15.6001 11.2725 15.8321 11.3623 16.0048 11.5262C16.1487 11.6628 16.2416 11.8415 16.2709 12.0336L16.2808 12.1503C16.0512 15.3292 13.7164 17.9807 10.5441 18.6651C7.37174 19.3495 4.11866 17.9037 2.55104 15.1125C2.0991 14.3016 1.81682 13.4104 1.72076 12.491C1.68064 12.2188 1.66297 11.9439 1.66793 11.6689C1.66297 8.26074 4.09 5.31426 7.48739 4.60394C7.89629 4.54026 8.29714 4.75673 8.46111 5.12974C8.50353 5.21612 8.53153 5.30864 8.54411 5.40375Z" fill="#04A9CC"/>
<path opacity="0.4" d="M18.3333 8.67687L18.3275 8.70403L18.3107 8.74352L18.313 8.85196C18.3043 8.99554 18.2488 9.13371 18.1533 9.24538C18.0537 9.36163 17.9177 9.44079 17.768 9.47154L17.6767 9.48404L11.276 9.89879C11.0631 9.91979 10.8511 9.85113 10.6928 9.70996C10.5608 9.59221 10.4765 9.43338 10.4527 9.26221L10.0231 2.87084C10.0156 2.84923 10.0156 2.82581 10.0231 2.80419C10.0289 2.62802 10.1065 2.46149 10.2384 2.34182C10.3702 2.22214 10.5456 2.15929 10.725 2.16731C14.5249 2.26398 17.7186 4.99645 18.3333 8.67687Z" fill="#04A9CC"/>
</g>
</svg>
