<svg width="16" height="16" viewBox="0 0 16 16" fill="none" xmlns="http://www.w3.org/2000/svg">
<path d="M12.2133 8.50006H10C8.34 8.50006 7.5 7.56006 7.5 5.70006V3.78672C7.5 3.10672 7.58 2.13339 8.28667 1.60006C8.88 1.16006 9.73333 1.12672 10.9933 1.49339C12.6467 1.97339 14.0267 3.35339 14.5067 5.00672C14.8733 6.26006 14.84 7.12006 14.4 7.70672C13.8667 8.42006 12.8933 8.50006 12.2133 8.50006ZM9.52 2.24006C9.24667 2.24006 9.03333 2.29339 8.89333 2.40006C8.63333 2.59339 8.50667 3.04672 8.50667 3.78672V5.70672C8.50667 7.20006 9.08 7.50672 10.0067 7.50672H12.22C12.9533 7.50672 13.4067 7.38006 13.6067 7.12006C13.84 6.81339 13.82 6.20006 13.56 5.30006C13.1733 3.98672 12.04 2.84672 10.7267 2.46672C10.2333 2.31339 9.83333 2.24006 9.52 2.24006Z" fill="#4B5563"/>
<path d="M7.37992 15.1667C7.02659 15.1667 6.66659 15.1401 6.30659 15.0801C3.57992 14.6401 1.35992 12.4267 0.919922 9.70005C0.353255 6.19338 2.61325 2.88672 6.07326 2.18005C6.34659 2.12672 6.60659 2.30005 6.66659 2.56672C6.71992 2.84005 6.54659 3.10005 6.27992 3.16005C3.35326 3.76005 1.43326 6.56005 1.91992 9.54005C2.29326 11.8467 4.16659 13.7201 6.47326 14.0934C9.46659 14.5734 12.2599 12.6467 12.8533 9.70672C12.9066 9.43338 13.1733 9.26005 13.4399 9.31338C13.7133 9.36672 13.8866 9.63338 13.8333 9.90005C13.1999 13.0134 10.4799 15.1667 7.37992 15.1667Z" fill="#4B5563"/>
</svg>
