<svg width="16" height="16" viewBox="0 0 16 16" fill="none" xmlns="http://www.w3.org/2000/svg">
<path d="M7.85993 7.91996C7.49993 7.91996 7.13327 7.85329 6.8466 7.72663L2.91327 5.97996C1.91327 5.53329 1.7666 4.93329 1.7666 4.60663C1.7666 4.27996 1.91327 3.67996 2.91327 3.23329L6.8466 1.48663C7.4266 1.22663 8.29994 1.22663 8.87994 1.48663L12.8199 3.23329C13.8133 3.67329 13.9666 4.27996 13.9666 4.60663C13.9666 4.93329 13.8199 5.53329 12.8199 5.97996L8.87994 7.72663C8.5866 7.85996 8.2266 7.91996 7.85993 7.91996ZM7.85993 2.29329C7.63327 2.29329 7.41327 2.32663 7.25327 2.39996L3.31993 4.14663C2.91327 4.33329 2.7666 4.51996 2.7666 4.60663C2.7666 4.69329 2.91327 4.88663 3.31327 5.06663L7.2466 6.81329C7.5666 6.95329 8.1466 6.95329 8.4666 6.81329L12.4066 5.06663C12.8133 4.88663 12.9599 4.69329 12.9599 4.60663C12.9599 4.51996 12.8133 4.32663 12.4066 4.14663L8.47327 2.39996C8.31327 2.33329 8.0866 2.29329 7.85993 2.29329Z" fill="#4B5563"/>
<path d="M8 11.3934C7.74667 11.3934 7.49333 11.34 7.25333 11.2334L2.72667 9.22004C2.04 8.92004 1.5 8.08671 1.5 7.33337C1.5 7.06004 1.72667 6.83337 2 6.83337C2.27333 6.83337 2.5 7.06004 2.5 7.33337C2.5 7.70004 2.8 8.16004 3.13333 8.31337L7.66 10.3267C7.87333 10.42 8.12 10.42 8.34 10.3267L12.8667 8.31337C13.2 8.16671 13.5 7.70004 13.5 7.33337C13.5 7.06004 13.7267 6.83337 14 6.83337C14.2733 6.83337 14.5 7.06004 14.5 7.33337C14.5 8.08671 13.96 8.92004 13.2733 9.22671L8.74667 11.24C8.50667 11.34 8.25333 11.3934 8 11.3934Z" fill="#4B5563"/>
<path d="M8 14.7267C7.74667 14.7267 7.49333 14.6734 7.25333 14.5667L2.72667 12.5534C1.98 12.22 1.5 11.48 1.5 10.66C1.5 10.3867 1.72667 10.16 2 10.16C2.27333 10.16 2.5 10.3934 2.5 10.6667C2.5 11.0867 2.74667 11.4734 3.13333 11.6467L7.66 13.66C7.87333 13.7534 8.12 13.7534 8.34 13.66L12.8667 11.6467C13.2533 11.4734 13.5 11.0934 13.5 10.6667C13.5 10.3934 13.7267 10.1667 14 10.1667C14.2733 10.1667 14.5 10.3934 14.5 10.6667C14.5 11.4867 14.02 12.2267 13.2733 12.56L8.74667 14.5734C8.50667 14.6734 8.25333 14.7267 8 14.7267Z" fill="#292D32"/>
</svg>
