<svg width="16" height="16" viewBox="0 0 16 16" fill="none" xmlns="http://www.w3.org/2000/svg">
<path d="M11.5282 2.75995L11.4815 5.28661C11.4748 5.63328 11.6948 6.09328 11.9748 6.29995L13.6282 7.55328C14.6882 8.35328 14.5148 9.33328 13.2482 9.73328L11.0948 10.4066C10.7348 10.5199 10.3548 10.9133 10.2615 11.2799L9.74815 13.2399C9.34148 14.7866 8.32815 14.9399 7.48815 13.5799L6.31482 11.6799C6.10148 11.3333 5.59482 11.0733 5.19482 11.0933L2.96815 11.2066C1.37482 11.2866 0.921483 10.3666 1.96148 9.15328L3.28148 7.61995C3.52815 7.33328 3.64148 6.79995 3.52815 6.43995L2.84815 4.27995C2.45482 3.01328 3.16148 2.31328 4.42148 2.72661L6.38815 3.37328C6.72148 3.47995 7.22148 3.40661 7.50148 3.19995L9.55482 1.71995C10.6681 0.926614 11.5548 1.39328 11.5282 2.75995Z" fill="#04A9CC"/>
<path d="M14.2935 13.6467L12.2735 11.6267C12.0802 11.4334 11.7602 11.4334 11.5669 11.6267C11.3735 11.82 11.3735 12.14 11.5669 12.3334L13.5869 14.3534C13.6869 14.4534 13.8135 14.5 13.9402 14.5C14.0669 14.5 14.1935 14.4534 14.2935 14.3534C14.4869 14.16 14.4869 13.84 14.2935 13.6467Z" fill="#04A9CC"/>
</svg>
