<svg width="11" height="11" viewBox="0 0 11 11" fill="none" xmlns="http://www.w3.org/2000/svg">
<path d="M9.625 3.55212H1.375C1.18708 3.55212 1.03125 3.39629 1.03125 3.20837C1.03125 3.02046 1.18708 2.86462 1.375 2.86462H9.625C9.81292 2.86462 9.96875 3.02046 9.96875 3.20837C9.96875 3.39629 9.81292 3.55212 9.625 3.55212Z" fill="#241C1D"/>
<path d="M9.625 5.84375H1.375C1.18708 5.84375 1.03125 5.68792 1.03125 5.5C1.03125 5.31208 1.18708 5.15625 1.375 5.15625H9.625C9.81292 5.15625 9.96875 5.31208 9.96875 5.5C9.96875 5.68792 9.81292 5.84375 9.625 5.84375Z" fill="#241C1D"/>
<path d="M9.625 8.13538H1.375C1.18708 8.13538 1.03125 7.97954 1.03125 7.79163C1.03125 7.60371 1.18708 7.44788 1.375 7.44788H9.625C9.81292 7.44788 9.96875 7.60371 9.96875 7.79163C9.96875 7.97954 9.81292 8.13538 9.625 8.13538Z" fill="#241C1D"/>
</svg>
