<svg width="20" height="20" viewBox="0 0 20 20" fill="none" xmlns="http://www.w3.org/2000/svg">
<path d="M9.99996 19.0083C9.42496 19.0083 8.88329 18.7166 8.49996 18.2083L7.24996 16.5416C7.22496 16.5083 7.12496 16.4583 7.07496 16.4583H6.66663C3.19163 16.4583 1.04163 15.5166 1.04163 10.8333V6.66663C1.04163 2.98329 2.98329 1.04163 6.66663 1.04163H11.6666C12.0083 1.04163 12.2916 1.32496 12.2916 1.66663C12.2916 2.00829 12.0083 2.29163 11.6666 2.29163H6.66663C3.68329 2.29163 2.29163 3.68329 2.29163 6.66663V10.8333C2.29163 14.6 3.58329 15.2083 6.66663 15.2083H7.08329C7.50829 15.2083 7.99163 15.45 8.24996 15.7916L9.49996 17.4583C9.79163 17.8416 10.2083 17.8416 10.5 17.4583L11.75 15.7916C12.025 15.425 12.4583 15.2083 12.9166 15.2083H13.3333C16.3166 15.2083 17.7083 13.8166 17.7083 10.8333V8.33329C17.7083 7.99163 17.9916 7.70829 18.3333 7.70829C18.675 7.70829 18.9583 7.99163 18.9583 8.33329V10.8333C18.9583 14.5166 17.0166 16.4583 13.3333 16.4583H12.9166C12.85 16.4583 12.7916 16.4916 12.75 16.5416L11.5 18.2083C11.1166 18.7166 10.575 19.0083 9.99996 19.0083Z" fill="#241C1D"/>
<path d="M9.99996 10C9.53329 10 9.16663 9.62504 9.16663 9.16671C9.16663 8.70837 9.54163 8.33337 9.99996 8.33337C10.4583 8.33337 10.8333 8.70837 10.8333 9.16671C10.8333 9.62504 10.4666 10 9.99996 10Z" fill="#241C1D"/>
<path d="M13.3333 10C12.8667 10 12.5 9.62504 12.5 9.16671C12.5 8.70837 12.875 8.33337 13.3333 8.33337C13.7917 8.33337 14.1667 8.70837 14.1667 9.16671C14.1667 9.62504 13.8 10 13.3333 10Z" fill="#241C1D"/>
<path d="M6.66671 10C6.20004 10 5.83337 9.62504 5.83337 9.16671C5.83337 8.70837 6.20837 8.33337 6.66671 8.33337C7.12504 8.33337 7.50004 8.70837 7.50004 9.16671C7.50004 9.62504 7.13337 10 6.66671 10Z" fill="#241C1D"/>
<path d="M16.25 6.45829C14.7583 6.45829 13.5416 5.24163 13.5416 3.74996C13.5416 2.25829 14.7583 1.04163 16.25 1.04163C17.7416 1.04163 18.9583 2.25829 18.9583 3.74996C18.9583 5.24163 17.7416 6.45829 16.25 6.45829ZM16.25 2.29163C15.45 2.29163 14.7916 2.94996 14.7916 3.74996C14.7916 4.54996 15.45 5.20829 16.25 5.20829C17.05 5.20829 17.7083 4.54996 17.7083 3.74996C17.7083 2.94996 17.05 2.29163 16.25 2.29163Z" fill="#241C1D"/>
</svg>
