<svg width="20" height="20" viewBox="0 0 20 20" fill="none" xmlns="http://www.w3.org/2000/svg">
<path d="M12.2916 15.8333C12.2916 17.1 11.2666 18.125 9.99992 18.125C8.73325 18.125 7.70825 17.1 7.70825 15.8333C7.70825 14.5667 8.73325 13.5417 9.99992 13.5417C11.2666 13.5417 12.2916 14.5667 12.2916 15.8333ZM8.95825 15.8333C8.95825 16.4083 9.42492 16.875 9.99992 16.875C10.5749 16.875 11.0416 16.4083 11.0416 15.8333C11.0416 15.2583 10.5749 14.7917 9.99992 14.7917C9.42492 14.7917 8.95825 15.2583 8.95825 15.8333Z" fill="#241C1D"/>
<path d="M12.2916 4.16671C12.2916 5.43337 11.2666 6.45837 9.99992 6.45837C8.73325 6.45837 7.70825 5.43337 7.70825 4.16671C7.70825 2.90004 8.73325 1.87504 9.99992 1.87504C11.2666 1.87504 12.2916 2.90004 12.2916 4.16671ZM8.95825 4.16671C8.95825 4.74171 9.42492 5.20837 9.99992 5.20837C10.5749 5.20837 11.0416 4.74171 11.0416 4.16671C11.0416 3.59171 10.5749 3.12504 9.99992 3.12504C9.42492 3.12504 8.95825 3.59171 8.95825 4.16671Z" fill="#241C1D"/>
<path d="M12.2916 9.99996C12.2916 11.2666 11.2666 12.2916 9.99992 12.2916C8.73325 12.2916 7.70825 11.2666 7.70825 9.99996C7.70825 8.73329 8.73325 7.70829 9.99992 7.70829C11.2666 7.70829 12.2916 8.73329 12.2916 9.99996ZM8.95825 9.99996C8.95825 10.575 9.42492 11.0416 9.99992 11.0416C10.5749 11.0416 11.0416 10.575 11.0416 9.99996C11.0416 9.42496 10.5749 8.95829 9.99992 8.95829C9.42492 8.95829 8.95825 9.42496 8.95825 9.99996Z" fill="#241C1D"/>
</svg>
