<svg width="16" height="16" viewBox="0 0 16 16" fill="none" xmlns="http://www.w3.org/2000/svg">
<path d="M10.54 13.4533C10.3667 13.4533 10.1867 13.4466 9.99338 13.4266C9.64671 13.4 9.25338 13.3333 8.84671 13.2333L7.72671 12.9666C4.65338 12.24 3.64671 10.6133 4.36671 7.54664L5.02005 4.7533C5.16671 4.11997 5.34005 3.60664 5.55338 3.17997C6.70005 0.813303 8.89338 1.02664 10.4534 1.3933L11.5667 1.6533C13.1267 2.01997 14.1134 2.59997 14.6667 3.48664C15.2134 4.3733 15.3 5.5133 14.9334 7.0733L14.28 9.85997C13.7067 12.3 12.5134 13.4533 10.54 13.4533ZM8.74671 2.16664C7.63338 2.16664 6.92671 2.62664 6.45338 3.6133C6.28005 3.9733 6.12671 4.41997 5.99338 4.97997L5.34005 7.7733C4.74671 10.2933 5.43338 11.3933 7.95338 11.9933L9.07338 12.26C9.43338 12.3466 9.77338 12.4 10.08 12.4266C11.8934 12.6066 12.7934 11.8133 13.3 9.6333L13.9534 6.84664C14.2534 5.55997 14.2134 4.65997 13.8134 4.0133C13.4134 3.36664 12.6267 2.92664 11.3334 2.62664L10.22 2.36664C9.66671 2.2333 9.17338 2.16664 8.74671 2.16664Z" fill="#4B5563"/>
<path d="M5.55341 14.8334C3.84008 14.8334 2.74674 13.8067 2.04674 11.64L1.19341 9.0067C0.246742 6.07337 1.09341 4.42003 4.01341 3.47337L5.06674 3.13337C5.41341 3.0267 5.67341 2.95337 5.90674 2.91337C6.10007 2.87337 6.28674 2.9467 6.40008 3.10003C6.51341 3.25337 6.53341 3.45337 6.45341 3.6267C6.28008 3.98003 6.12674 4.4267 6.00008 4.9867L5.34674 7.78003C4.75341 10.3 5.44007 11.4 7.96007 12L9.08008 12.2667C9.44007 12.3534 9.78008 12.4067 10.0867 12.4334C10.3001 12.4534 10.4734 12.6 10.5334 12.8067C10.5867 13.0134 10.5067 13.2267 10.3334 13.3467C9.89341 13.6467 9.34008 13.9 8.64008 14.1267L7.58674 14.4734C6.82008 14.7134 6.15341 14.8334 5.55341 14.8334ZM5.18674 4.1467L4.32674 4.4267C1.94674 5.19337 1.38008 6.31337 2.14674 8.70003L3.00008 11.3334C3.77341 13.7134 4.89341 14.2867 7.27341 13.52L8.32674 13.1734C8.36674 13.16 8.40007 13.1467 8.44007 13.1334L7.73341 12.9667C4.66008 12.24 3.65341 10.6134 4.37341 7.5467L5.02674 4.75337C5.07341 4.54003 5.12674 4.33337 5.18674 4.1467Z" fill="#4B5563"/>
<path d="M11.6599 7.00664C11.6199 7.00664 11.5799 6.99997 11.5332 6.99331L8.29992 6.17331C8.03325 6.10664 7.87325 5.83331 7.93992 5.56664C8.00658 5.29997 8.27992 5.13997 8.54658 5.20664L11.7799 6.02664C12.0466 6.09331 12.2066 6.36664 12.1399 6.63331C12.0866 6.85331 11.8799 7.00664 11.6599 7.00664Z" fill="#4B5563"/>
<path d="M9.70643 9.25993C9.66643 9.25993 9.62643 9.25326 9.57976 9.2466L7.63976 8.75326C7.37309 8.6866 7.21309 8.41326 7.27976 8.1466C7.34643 7.87993 7.61976 7.71993 7.88643 7.7866L9.82643 8.27993C10.0931 8.3466 10.2531 8.61993 10.1864 8.8866C10.1331 9.11326 9.93309 9.25993 9.70643 9.25993Z" fill="#4B5563"/>
</svg>
