<svg width="56" height="55" viewBox="0 0 56 55" fill="none" xmlns="http://www.w3.org/2000/svg">
<path d="M21.7923 24.9105C21.5631 24.8875 21.2881 24.8875 21.036 24.9105C15.5819 24.7271 11.2506 20.2584 11.2506 14.7584C11.2506 9.14379 15.7881 4.58337 21.4256 4.58337C27.0402 4.58337 31.6006 9.14379 31.6006 14.7584C31.5777 20.2584 27.2464 24.7271 21.7923 24.9105Z" stroke="#241C1D" stroke-width="2.35714" stroke-linecap="round" stroke-linejoin="round"/>
<path d="M38.4056 9.16663C42.8514 9.16663 46.4264 12.7645 46.4264 17.1875C46.4264 21.5187 42.9889 25.0479 38.7035 25.2083C38.5202 25.1854 38.3139 25.1854 38.1077 25.2083" stroke="#241C1D" stroke-width="2.35714" stroke-linecap="round" stroke-linejoin="round"/>
<path d="M10.3336 33.3666C4.78774 37.0791 4.78774 43.1291 10.3336 46.8187C16.6357 51.0354 26.9711 51.0354 33.2732 46.8187C38.819 43.1062 38.819 37.0562 33.2732 33.3666C26.994 29.1729 16.6586 29.1729 10.3336 33.3666Z" stroke="#241C1D" stroke-width="2.35714" stroke-linecap="round" stroke-linejoin="round"/>
<path d="M42.8296 45.8334C44.4796 45.4896 46.0379 44.825 47.3213 43.8396C50.8963 41.1584 50.8963 36.7355 47.3213 34.0542C46.0608 33.0917 44.5254 32.45 42.8983 32.0834" stroke="#241C1D" stroke-width="2.35714" stroke-linecap="round" stroke-linejoin="round"/>
</svg>
