<svg width="16" height="16" viewBox="0 0 16 16" fill="none" xmlns="http://www.w3.org/2000/svg">
<path d="M8.59351 3.92004H3.40682C2.26682 3.92004 1.3335 4.85337 1.3335 5.99337V13.5667C1.3335 14.5334 2.02683 14.9467 2.87349 14.4734L5.49349 13.0134C5.77349 12.86 6.22683 12.86 6.50016 13.0134L9.12016 14.4734C9.96682 14.9467 10.6602 14.5334 10.6602 13.5667V5.99337C10.6668 4.85337 9.73351 3.92004 8.59351 3.92004Z" stroke="#292D32" stroke-linecap="round" stroke-linejoin="round"/>
<path d="M10.6668 5.99337V13.5667C10.6668 14.5334 9.9735 14.94 9.12683 14.4734L6.50684 13.0134C6.22684 12.86 5.77349 12.86 5.49349 13.0134L2.87349 14.4734C2.02683 14.94 1.3335 14.5334 1.3335 13.5667V5.99337C1.3335 4.85337 2.26682 3.92004 3.40682 3.92004H8.59351C9.73351 3.92004 10.6668 4.85337 10.6668 5.99337Z" stroke="#292D32" stroke-linecap="round" stroke-linejoin="round"/>
<path d="M14.6668 3.4067V10.98C14.6668 11.9467 13.9735 12.3534 13.1268 11.8867L10.6668 10.5134V5.99337C10.6668 4.85337 9.73351 3.92004 8.59351 3.92004H5.3335V3.4067C5.3335 2.2667 6.26682 1.33337 7.40682 1.33337H12.5935C13.7335 1.33337 14.6668 2.2667 14.6668 3.4067Z" stroke="#292D32" stroke-linecap="round" stroke-linejoin="round"/>
</svg>
