<svg width="16" height="16" viewBox="0 0 16 16" fill="none" xmlns="http://www.w3.org/2000/svg">
<path d="M8 10C9.10457 10 10 9.10457 10 8C10 6.89543 9.10457 6 8 6C6.89543 6 6 6.89543 6 8C6 9.10457 6.89543 10 8 10Z" fill="#4B5563" stroke="#4B5563" stroke-miterlimit="10" stroke-linecap="round" stroke-linejoin="round"/>
<path d="M1.33301 8.58667V7.41333C1.33301 6.72 1.89967 6.14667 2.59967 6.14667C3.80634 6.14667 4.29967 5.29333 3.69301 4.24667C3.34634 3.64667 3.55301 2.86667 4.15967 2.52L5.31301 1.86C5.83967 1.54666 6.51967 1.73333 6.83301 2.26L6.90634 2.38666C7.50634 3.43333 8.49301 3.43333 9.09967 2.38666L9.17301 2.26C9.48634 1.73333 10.1663 1.54666 10.693 1.86L11.8463 2.52C12.453 2.86667 12.6597 3.64667 12.313 4.24667C11.7063 5.29333 12.1997 6.14667 13.4063 6.14667C14.0997 6.14667 14.673 6.71333 14.673 7.41333V8.58667C14.673 9.28 14.1063 9.85333 13.4063 9.85333C12.1997 9.85333 11.7063 10.7067 12.313 11.7533C12.6597 12.36 12.453 13.1333 11.8463 13.48L10.693 14.14C10.1663 14.4533 9.48634 14.2667 9.17301 13.74L9.09967 13.6133C8.49967 12.5667 7.51301 12.5667 6.90634 13.6133L6.83301 13.74C6.51967 14.2667 5.83967 14.4533 5.31301 14.14L4.15967 13.48C3.55301 13.1333 3.34634 12.3533 3.69301 11.7533C4.29967 10.7067 3.80634 9.85333 2.59967 9.85333C1.89967 9.85333 1.33301 9.28 1.33301 8.58667Z" stroke="#4B5563" stroke-miterlimit="10" stroke-linecap="round" stroke-linejoin="round"/>
</svg>
