<svg width="16" height="16" viewBox="0 0 16 16" fill="none" xmlns="http://www.w3.org/2000/svg">
<path d="M11.3335 14.1667H4.66683C4.3935 14.1667 4.16683 13.94 4.16683 13.6667C4.16683 13.3934 4.3935 13.1667 4.66683 13.1667H11.3335C13.2402 13.1667 14.1668 12.24 14.1668 10.3334V5.66671C14.1668 3.76004 13.2402 2.83337 11.3335 2.83337H4.66683C2.76016 2.83337 1.8335 3.76004 1.8335 5.66671C1.8335 5.94004 1.60683 6.16671 1.3335 6.16671C1.06016 6.16671 0.833496 5.94004 0.833496 5.66671C0.833496 3.23337 2.2335 1.83337 4.66683 1.83337H11.3335C13.7668 1.83337 15.1668 3.23337 15.1668 5.66671V10.3334C15.1668 12.7667 13.7668 14.1667 11.3335 14.1667Z" fill="#292D32"/>
<path d="M7.99969 8.57998C7.43969 8.57998 6.87302 8.40665 6.43969 8.05331L4.35302 6.38665C4.13969 6.21331 4.09969 5.89998 4.27302 5.68665C4.44636 5.47331 4.75968 5.43332 4.97302 5.60665L7.05969 7.27332C7.56635 7.67998 8.42635 7.67998 8.93302 7.27332L11.0197 5.60665C11.233 5.43332 11.553 5.46665 11.7197 5.68665C11.893 5.89998 11.8597 6.21998 11.6397 6.38665L9.55301 8.05331C9.12635 8.40665 8.55969 8.57998 7.99969 8.57998Z" fill="#292D32"/>
<path d="M5.3335 11.5H1.3335C1.06016 11.5 0.833496 11.2733 0.833496 11C0.833496 10.7267 1.06016 10.5 1.3335 10.5H5.3335C5.60683 10.5 5.8335 10.7267 5.8335 11C5.8335 11.2733 5.60683 11.5 5.3335 11.5Z" fill="#292D32"/>
<path d="M3.3335 8.83337H1.3335C1.06016 8.83337 0.833496 8.60671 0.833496 8.33337C0.833496 8.06004 1.06016 7.83337 1.3335 7.83337H3.3335C3.60683 7.83337 3.8335 8.06004 3.8335 8.33337C3.8335 8.60671 3.60683 8.83337 3.3335 8.83337Z" fill="#292D32"/>
</svg>
