<svg width="56" height="55" viewBox="0 0 56 55" fill="none" xmlns="http://www.w3.org/2000/svg">
<path d="M5.64807 17.8292V40.1271C5.64807 44.4813 8.74182 46.2688 12.5002 44.1146L17.8856 41.0438C19.0543 40.3792 21.0022 40.3104 22.2168 40.9292L34.2481 46.9563C35.4627 47.5521 37.4106 47.5063 38.5793 46.8417L48.5022 41.1584C49.7627 40.425 50.8168 38.6375 50.8168 37.1709V14.8729C50.8168 10.5188 47.7231 8.73128 43.9647 10.8854L38.5793 13.9563C37.4106 14.6209 35.4627 14.6896 34.2481 14.0709L22.2168 8.06669C21.0022 7.47086 19.0543 7.51669 17.8856 8.18128L7.96265 13.8646C6.67932 14.5979 5.64807 16.3854 5.64807 17.8292Z" stroke="#292D32" stroke-width="2.35714" stroke-linecap="round" stroke-linejoin="round"/>
<path d="M20.0153 9.16663V38.9583" stroke="#292D32" stroke-width="2.35714" stroke-linecap="round" stroke-linejoin="round"/>
<path d="M36.449 15.1708V45.8333" stroke="#292D32" stroke-width="2.35714" stroke-linecap="round" stroke-linejoin="round"/>
</svg>
