<svg width="55" height="55" viewBox="0 0 55 55" fill="none" xmlns="http://www.w3.org/2000/svg">
<path d="M29.6084 5.1793L44.5271 13.223C46.2688 14.1626 46.2688 16.8439 44.5271 17.7835L29.6084 25.8272C28.2792 26.5376 26.7209 26.5376 25.3917 25.8272L10.4729 17.7835C8.73127 16.8439 8.73127 14.1626 10.4729 13.223L25.3917 5.1793C26.7209 4.46888 28.2792 4.46888 29.6084 5.1793Z" stroke="#241C1D" stroke-width="1.5" stroke-linecap="round" stroke-linejoin="round"/>
<path d="M8.2729 23.2143L22.1375 30.158C23.8562 31.0288 24.9562 32.7934 24.9562 34.7184V47.8268C24.9562 49.7289 22.9625 50.9434 21.2666 50.0955L7.40206 43.1518C5.68331 42.2809 4.58331 40.5163 4.58331 38.5913V25.483C4.58331 23.5809 6.57706 22.3663 8.2729 23.2143Z" stroke="#241C1D" stroke-width="1.5" stroke-linecap="round" stroke-linejoin="round"/>
<path d="M46.7271 23.2143L32.8625 30.158C31.1438 31.0288 30.0438 32.7934 30.0438 34.7184V47.8268C30.0438 49.7289 32.0375 50.9434 33.7333 50.0955L47.5979 43.1518C49.3167 42.2809 50.4167 40.5163 50.4167 38.5913V25.483C50.4167 23.5809 48.4229 22.3663 46.7271 23.2143Z" stroke="#241C1D" stroke-width="1.5" stroke-linecap="round" stroke-linejoin="round"/>
</svg>
