<svg width="20" height="21" viewBox="0 0 20 21" fill="none" xmlns="http://www.w3.org/2000/svg">
<path d="M8.01721 5.0351C8.24008 4.4328 9.09196 4.4328 9.31483 5.0351L10.7978 9.04284C10.8679 9.2322 11.0172 9.3815 11.2066 9.45157L15.2143 10.9346C15.8166 11.1574 15.8166 12.0093 15.2143 12.2322L11.2066 13.7152C11.0172 13.7853 10.8679 13.9346 10.7978 14.1239L9.31483 18.1316C9.09196 18.7339 8.24008 18.7339 8.01721 18.1316L6.53421 14.1239C6.46414 13.9346 6.31484 13.7853 6.12548 13.7152L2.11774 12.2322C1.51544 12.0093 1.51544 11.1574 2.11774 10.9346L6.12548 9.45157C6.31484 9.3815 6.46414 9.2322 6.53421 9.04284L8.01721 5.0351Z" fill="#ABC8E7" stroke="#6789C6" stroke-width="1.25"/>
<path d="M17.623 5L13.623 5" stroke="#6789C6" stroke-width="1.25" stroke-linecap="round"/>
<path d="M15.623 7L15.623 3" stroke="#6789C6" stroke-width="1.25" stroke-linecap="round"/>
</svg>
